<svg width="315" height="286" viewBox="0 0 315 286" fill="none" xmlns="http://www.w3.org/2000/svg">
<path d="M139.349 152.248C42.3666 250.742 0.270027 67.4816 113.216 34.0286C160.813 19.9103 242.303 50.5913 218.609 116.3C202.676 160.4 169.375 121.756 139.349 152.248Z" fill="url(#paint0_linear_8754_8195)"/>
<path opacity="0.9" d="M139.349 152.248C42.3666 250.742 0.270027 67.4816 113.216 34.0286C160.813 19.9103 242.303 50.5913 218.609 116.3C202.676 160.4 169.375 121.756 139.349 152.248Z" fill="white"/>
<path d="M157.5 253.363C224.962 253.363 279.651 250.17 279.651 246.231C279.651 242.293 224.962 239.1 157.5 239.1C90.0384 239.1 35.3496 242.293 35.3496 246.231C35.3496 250.17 90.0384 253.363 157.5 253.363Z" fill="#F5F5F5"/>
<path d="M129.97 85.2031C130.052 85.4803 130.197 85.9024 130.323 86.2552L130.726 87.3829C131.003 88.1326 131.306 88.876 131.627 89.6131C132.255 91.072 132.962 92.4957 133.744 93.8782C135.294 96.5872 137.177 99.0379 139.414 100.607L139.804 100.878C139.804 100.878 139.804 100.922 139.899 100.935C140.325 100.924 140.743 100.809 141.115 100.601C142.406 99.9164 143.594 99.0531 144.643 98.0362C145.855 96.9265 147.009 95.7553 148.101 94.5271C149.223 93.2671 150.325 91.963 151.365 90.6841L154.37 92.4985C152.809 95.8086 150.848 98.9146 148.53 101.747C147.257 103.322 145.748 104.691 144.057 105.805C142.946 106.52 141.689 106.979 140.378 107.147C139.543 107.231 138.701 107.154 137.895 106.92C137.48 106.798 137.079 106.633 136.698 106.428L135.974 106.025C134.213 104.963 132.619 103.647 131.243 102.119C129.927 100.682 128.754 99.1201 127.74 97.4566C126.745 95.8416 125.867 94.1572 125.113 92.4166C124.741 91.5598 124.388 90.6904 124.067 89.8147C123.903 89.3737 123.746 88.9327 123.601 88.4791C123.456 88.0255 123.324 87.6097 123.172 87.049L129.97 85.2031Z" fill="#B97964"/>
<path d="M136.477 96.3353L128.419 100.796C128.419 100.796 128.18 100.449 127.789 99.8507C127.506 99.4097 127.159 98.8301 126.718 98.1497C124.35 94.3004 120.418 87.2696 121.445 84.2897C123.014 79.7033 128.797 79.7789 131.639 85.0961C133.012 87.7454 134.243 90.4667 135.324 93.2483C135.62 93.9917 135.866 94.6406 136.055 95.1383C136.326 95.9006 136.477 96.3353 136.477 96.3353Z" fill="url(#paint1_linear_8754_8195)"/>
<path opacity="0.2" d="M136.477 96.3353L128.419 100.796C128.419 100.796 128.18 100.449 127.789 99.8507C127.506 99.4097 127.159 98.8301 126.718 98.1497C124.35 94.3004 120.418 87.2696 121.445 84.2897C123.014 79.7033 128.797 79.7789 131.639 85.0961C133.012 87.7454 134.243 90.4667 135.324 93.2483C135.62 93.9917 135.866 94.6406 136.055 95.1383C136.326 95.9006 136.477 96.3353 136.477 96.3353Z" fill="black"/>
<path opacity="0.2" d="M136.079 95.1697L127.813 99.8506C127.53 99.4096 127.183 98.83 126.742 98.1496L135.348 93.2734C135.619 94.0168 135.865 94.6657 136.079 95.1697Z" fill="black"/>
<path opacity="0.2" d="M121.325 84.8443C123.127 83.9749 125.206 84.6994 127.386 88.1518C129.566 91.6042 131.437 97.4002 131.67 99.0193L128.451 100.796C128.451 100.796 120.664 89.437 121.325 84.8443Z" fill="black"/>
<path d="M128.797 121.724H103.818C103.641 119.494 104.158 112.236 103.774 102.994C103.536 96.1437 102.706 89.3267 101.291 82.6197C101.178 82.1157 101.065 81.618 100.945 81.114C100.945 81.114 102.205 80.8557 104.026 80.5911C105.531 80.3706 107.421 80.1438 109.274 80.0556C112.809 79.8538 116.353 79.8538 119.889 80.0556C121.521 80.2068 123.115 80.4777 124.387 80.7234C126.013 81.051 127.121 81.3534 127.121 81.3534C127.121 81.3534 133.125 95.4591 128.797 121.724Z" fill="url(#paint2_linear_8754_8195)"/>
<path opacity="0.2" d="M128.797 121.724H103.818C103.641 119.494 104.158 112.236 103.774 102.994C103.536 96.1437 102.706 89.3267 101.291 82.6197C101.178 82.1157 101.065 81.618 100.945 81.114C100.945 81.114 102.205 80.8557 104.026 80.5911C105.531 80.3706 107.421 80.1438 109.274 80.0556C112.809 79.8538 116.353 79.8538 119.889 80.0556C121.521 80.2068 123.115 80.4777 124.387 80.7234C126.013 81.051 127.121 81.3534 127.121 81.3534C127.121 81.3534 133.125 95.4591 128.797 121.724Z" fill="black"/>
<path d="M94.7324 233.392L98.4368 236.706L105.48 229.366L101.782 226.052L94.7324 233.392Z" fill="#B97964"/>
<path d="M107.414 240.29H112.082L112.693 229.473H108.019L107.414 240.29Z" fill="#B97964"/>
<path d="M105.48 229.372L101.845 233.152L98.1406 229.839L101.776 226.052L105.48 229.372Z" fill="#A76755"/>
<path d="M108.02 229.479H112.694L112.379 235.055H107.705L108.02 229.479Z" fill="#A76755"/>
<path d="M128.558 121.485C128.558 121.485 133.478 155.543 135.16 174.084C136.508 188.952 104.347 233.304 104.347 233.304L98.123 227.451C98.123 227.451 121.615 187.692 119.807 171.136C118.056 155.096 112.121 121.466 112.121 121.466L128.558 121.485Z" fill="url(#paint3_linear_8754_8195)"/>
<path opacity="0.7" d="M128.558 121.485C128.558 121.485 133.478 155.543 135.16 174.084C136.508 188.952 104.347 233.304 104.347 233.304L98.123 227.451C98.123 227.451 121.615 187.692 119.807 171.136C118.056 155.096 112.121 121.466 112.121 121.466L128.558 121.485Z" fill="black"/>
<path d="M112.329 239.78H107.1C107.056 239.779 107.012 239.786 106.971 239.801C106.93 239.816 106.892 239.839 106.86 239.869C106.828 239.899 106.802 239.935 106.784 239.975C106.765 240.015 106.755 240.058 106.754 240.102L106.502 244.253C106.502 244.472 106.587 244.681 106.741 244.837C106.894 244.993 107.102 245.082 107.321 245.085C109.148 245.053 110.017 244.94 112.361 244.94C113.778 244.94 119.813 245.091 121.773 245.091C123.732 245.091 123.663 243.151 122.85 242.974C119.12 242.187 114.503 241.084 113.186 240.07C112.944 239.874 112.64 239.772 112.329 239.78Z" fill="#263238"/>
<path d="M99.4571 235.37L94.9527 232.34C94.8797 232.283 94.7899 232.252 94.6975 232.252C94.6051 232.252 94.5153 232.283 94.4424 232.34L91.0025 235.811C90.9343 235.888 90.8838 235.978 90.8547 236.076C90.8256 236.175 90.8186 236.278 90.8343 236.379C90.85 236.48 90.8879 236.577 90.9453 236.662C91.0027 236.746 91.0782 236.818 91.1664 236.87C94.0392 239.081 96.1118 240.744 97.7435 242.584C99.6335 244.738 100.66 245.041 105.07 245.041C107.112 245.041 108.265 243.321 107.433 243.056C100.081 240.732 102.046 239.717 100.264 236.309C100.074 235.936 99.7974 235.614 99.4571 235.37Z" fill="#263238"/>
<path d="M150.809 91.4787L152.416 86.3379L156.587 89.3934C156.587 89.3934 154.306 93.9735 152.762 93.5577L150.809 91.4787Z" fill="#B97964"/>
<path d="M156.807 84.3721L159.157 87.2512L156.587 89.3932L152.416 86.3377L156.807 84.3721Z" fill="#B97964"/>
<path opacity="0.2" d="M103.775 102.995C103.537 96.1439 102.707 89.327 101.293 82.62C102.962 82.4751 105.816 82.62 106.288 85.3353C106.799 88.2333 106.156 95.0499 103.775 102.995Z" fill="black"/>
<path opacity="0.5" d="M119.807 171.148C118.906 162.889 116.89 149.949 115.158 139.352C116.065 137.575 118.604 133.984 118.604 133.984C120.884 141.866 125.843 171.57 118.774 211.695C111.403 223.577 104.347 233.316 104.347 233.316L103.383 217.995C110.193 205.181 121.061 182.608 119.807 171.148Z" fill="black"/>
<path d="M105.474 87.9005L104.371 89.7905C103.993 90.4457 103.628 91.1072 103.275 91.775C102.557 93.1106 101.866 94.4546 101.202 95.807C100.572 97.1615 99.9426 98.5223 99.3819 99.8831C98.8403 101.225 98.3672 102.594 97.9644 103.984L97.8888 104.236L97.851 104.368C97.8303 104.403 97.8174 104.441 97.8132 104.482C97.7939 104.676 97.7939 104.873 97.8132 105.067C97.8782 105.662 98.0027 106.249 98.1849 106.819C98.6214 108.186 99.154 109.521 99.7788 110.813C101.038 113.522 102.569 116.275 104.1 118.934L101.335 121.095C99.0373 118.758 96.9601 116.215 95.1294 113.497C94.1584 112.059 93.3152 110.539 92.6094 108.955C92.211 108.051 91.9029 107.109 91.6896 106.145C91.5666 105.563 91.5033 104.969 91.5006 104.374C91.4959 104.016 91.5212 103.658 91.5762 103.303L91.6203 103.045V102.881L91.6896 102.56C92.3682 99.2337 93.4141 95.9925 94.8081 92.8964C95.4696 91.3718 96.1941 89.885 96.969 88.4297C97.3596 87.6989 97.7565 86.9807 98.1723 86.2625C98.5881 85.5443 98.9976 84.8639 99.489 84.1016L105.474 87.9005Z" fill="#B97964"/>
<path d="M107.145 89.6202C105.98 92.8466 104.628 96.002 103.094 99.0702C102.76 99.7632 102.464 100.38 102.2 100.878C101.759 101.754 101.481 102.283 101.481 102.283L92.0312 97.0416C92.0312 97.0416 92.151 96.6448 92.3652 95.977C92.529 95.473 92.7431 94.8114 92.9951 94.0491C94.5701 89.5572 97.7894 81.5437 100.946 81.0838C105.665 80.4286 109.06 83.9565 107.145 89.6202Z" fill="url(#paint4_linear_8754_8195)"/>
<path opacity="0.2" d="M103.093 99.1012C102.759 99.7942 102.463 100.412 102.199 100.909L92.3516 96.0079C92.5154 95.5039 92.7296 94.8424 92.9816 94.0801L103.093 99.1012Z" fill="black"/>
<path d="M113.986 240.562C113.561 240.552 113.139 240.497 112.726 240.398C112.705 240.392 112.686 240.381 112.67 240.365C112.655 240.35 112.644 240.331 112.638 240.31C112.635 240.289 112.639 240.268 112.648 240.249C112.657 240.23 112.671 240.214 112.688 240.202C112.833 240.095 114.162 239.194 114.729 239.415C114.794 239.441 114.851 239.483 114.895 239.537C114.94 239.591 114.969 239.655 114.981 239.724C115.01 239.826 115.012 239.934 114.988 240.038C114.964 240.141 114.914 240.237 114.843 240.316C114.597 240.499 114.292 240.587 113.986 240.562ZM113.041 240.24C113.879 240.404 114.49 240.379 114.71 240.165C114.756 240.112 114.787 240.048 114.8 239.979C114.813 239.911 114.808 239.84 114.786 239.774C114.782 239.74 114.768 239.709 114.747 239.682C114.726 239.655 114.698 239.635 114.666 239.623C114.358 239.503 113.583 239.894 113.041 240.24Z" fill="url(#paint5_linear_8754_8195)"/>
<path d="M112.77 240.41C112.754 240.416 112.736 240.416 112.72 240.41C112.704 240.401 112.69 240.388 112.681 240.373C112.671 240.358 112.665 240.34 112.663 240.322C112.663 240.265 112.556 238.923 113.028 238.47C113.088 238.41 113.16 238.366 113.24 238.339C113.32 238.313 113.405 238.306 113.488 238.319C113.581 238.323 113.67 238.357 113.741 238.416C113.813 238.475 113.863 238.556 113.885 238.646C113.992 239.157 113.293 240.133 112.827 240.41H112.77ZM113.4 238.52C113.357 238.519 113.314 238.527 113.274 238.543C113.234 238.559 113.197 238.584 113.167 238.615C112.908 239.062 112.799 239.581 112.858 240.095C113.262 239.755 113.728 239.012 113.658 238.678C113.658 238.615 113.608 238.539 113.451 238.52H113.4Z" fill="url(#paint6_linear_8754_8195)"/>
<path d="M102.481 237.89C101.648 237.762 100.853 237.455 100.15 236.989C100.131 236.978 100.116 236.961 100.107 236.941C100.098 236.92 100.095 236.898 100.1 236.876C100.105 236.853 100.116 236.833 100.133 236.817C100.15 236.801 100.171 236.791 100.194 236.788C100.446 236.788 102.658 236.624 103.086 237.128C103.121 237.172 103.144 237.223 103.155 237.278C103.166 237.332 103.164 237.389 103.149 237.443C103.131 237.53 103.091 237.611 103.034 237.679C102.977 237.747 102.904 237.8 102.821 237.833C102.712 237.873 102.597 237.892 102.481 237.89ZM100.591 236.983C101.599 237.537 102.393 237.777 102.746 237.613C102.798 237.592 102.844 237.558 102.88 237.516C102.916 237.473 102.941 237.422 102.954 237.367C102.964 237.349 102.97 237.328 102.97 237.307C102.97 237.286 102.964 237.266 102.954 237.248C102.689 237.008 101.479 236.964 100.579 237.002L100.591 236.983Z" fill="url(#paint7_linear_8754_8195)"/>
<path d="M100.209 237.027C100.19 237.027 100.172 237.023 100.155 237.014C100.139 237.005 100.125 236.992 100.114 236.977C100.107 236.96 100.102 236.942 100.102 236.923C100.102 236.905 100.107 236.886 100.114 236.87C100.152 236.794 100.996 235.08 102.074 235.61C102.37 235.754 102.401 235.931 102.376 236.051C102.263 236.555 100.858 237.021 100.215 237.04L100.209 237.027ZM101.664 235.723C101.091 235.723 100.599 236.454 100.404 236.794C101.078 236.706 102.099 236.29 102.162 235.994C102.162 235.925 102.111 235.862 101.979 235.792C101.881 235.745 101.773 235.721 101.664 235.723Z" fill="url(#paint8_linear_8754_8195)"/>
<path d="M102.846 117.945L107.496 117.138L105.108 122.518C105.108 122.518 100.862 122.518 101.057 120.307L102.846 117.945Z" fill="#B97964"/>
<path d="M110.962 119.841L108.782 124.188L105.109 122.518L107.497 117.138L110.962 119.841Z" fill="#B97964"/>
<path d="M97.7441 227.111L104.725 233.675L106.968 231.262L98.9915 223.992L97.7441 227.111Z" fill="url(#paint9_linear_8754_8195)"/>
<path opacity="0.7" d="M97.7441 227.111L104.725 233.675L106.968 231.262L98.9915 223.992L97.7441 227.111Z" fill="white"/>
<path d="M119.7 121.485C119.7 121.485 120.147 157.181 119.391 170.55C118.56 185.197 114.408 233.707 114.408 233.707H105.84C105.84 233.707 106.092 186.375 105.582 171.879C105.021 156.129 103.572 121.479 103.572 121.479L119.7 121.485Z" fill="url(#paint10_linear_8754_8195)"/>
<path opacity="0.7" d="M119.7 121.485C119.7 121.485 120.147 157.181 119.391 170.55C118.56 185.197 114.408 233.707 114.408 233.707H105.84C105.84 233.707 106.092 186.375 105.582 171.879C105.021 156.129 103.572 121.479 103.572 121.479L119.7 121.485Z" fill="black"/>
<path d="M105.48 233.707H114.722L115.239 230.462L105.033 230.966L105.48 233.707Z" fill="url(#paint11_linear_8754_8195)"/>
<path opacity="0.7" d="M105.48 233.707H114.722L115.239 230.462L105.033 230.966L105.48 233.707Z" fill="white"/>
<path opacity="0.2" d="M107.145 89.6202C105.98 92.8466 104.628 96.002 103.094 99.0702C102.76 99.7632 102.464 100.38 102.2 100.878C101.759 101.754 101.481 102.283 101.481 102.283L92.0312 97.0416C92.0312 97.0416 92.151 96.6448 92.3652 95.977C92.529 95.473 92.7431 94.8114 92.9951 94.0491C94.5701 89.5572 97.7894 81.5437 100.946 81.0838C105.665 80.4286 109.06 83.9565 107.145 89.6202Z" fill="black"/>
<path d="M123.878 83.6907C123.374 85.3602 121.988 87.5904 118.113 88.7307L117.105 89.0331L116.079 88.8504C108.172 87.4329 105.261 83.1804 104.739 82.3551L103.68 80.5911C105.186 80.3706 107.076 80.1438 108.928 80.0556C112.464 79.8538 116.008 79.8538 119.544 80.0556C121.175 80.2068 122.769 80.4777 124.042 80.7234C124.217 81.7118 124.161 82.7276 123.878 83.6907Z" fill="url(#paint12_linear_8754_8195)"/>
<path opacity="0.4" d="M123.878 83.6907C123.374 85.3602 121.988 87.5904 118.113 88.7307L117.105 89.0331L116.079 88.8504C108.172 87.4329 105.261 83.1804 104.739 82.3551L103.68 80.5911C105.186 80.3706 107.076 80.1438 108.928 80.0556C112.464 79.8538 116.008 79.8538 119.544 80.0556C121.175 80.2068 122.769 80.4777 124.042 80.7234C124.217 81.7118 124.161 82.7276 123.878 83.6907Z" fill="black"/>
<path d="M117.179 84.5102C110.841 83.3699 108.857 80.1002 108.857 80.1002C111.169 77.8196 110.281 71.5889 109.487 68.168L112.328 70.5242L116.196 73.7372C116.082 74.2523 116 74.7741 115.951 75.2996C115.743 77.3975 116.284 79.3064 119.371 80.0372C119.384 80.0183 121.942 83.0927 117.179 84.5102Z" fill="#B97964"/>
<path d="M116.21 73.7189C116.095 74.234 116.013 74.7558 115.964 75.2813C114.522 74.9915 112.594 73.4543 112.392 71.9801C112.321 71.492 112.304 70.9976 112.342 70.5059L116.21 73.7189Z" fill="#A76755"/>
<path d="M118.838 56.2167C121.144 57.2562 122.423 63.7389 119.468 65.1375C116.513 66.5361 114.478 54.2448 118.838 56.2167Z" fill="#263238"/>
<path d="M108.36 63.2295C109.349 67.7718 109.696 70.4745 112.38 72.5472C113.245 73.2289 114.28 73.6613 115.373 73.7977C116.466 73.9342 117.576 73.7695 118.582 73.3214C119.589 72.8734 120.453 72.159 121.083 71.2553C121.713 70.3517 122.085 69.2931 122.157 68.1939C122.51 63.9666 120.834 57.2508 116.052 55.9656C115.025 55.6594 113.935 55.6288 112.893 55.8768C111.85 56.1249 110.891 56.6429 110.111 57.3789C109.332 58.1148 108.76 59.0428 108.452 60.0697C108.145 61.0967 108.113 62.1864 108.36 63.2295Z" fill="#B97964"/>
<path d="M103.062 58.725C100.85 59.7015 102.104 62.7255 103.61 64.647C105.695 67.3182 107.9 68.5656 109.4 67.3371C110.748 66.663 111.636 62.6877 110.464 60.237C112.537 58.8699 116.84 60.5583 118.182 58.347C119.524 56.1357 120.481 56.3184 122.844 57.78C125.206 59.2416 127.096 53.4645 120.954 52.3872C124.356 53.9181 123.575 56.898 121.086 53.8425C119.328 51.6879 115.114 49.3065 112.184 52.5195C110.023 54.8631 102.432 51.2406 103.062 58.725Z" fill="#263238"/>
<path d="M107.282 67.9669C108.019 68.8532 109.037 69.4603 110.167 69.6868C111.597 69.9262 111.919 68.6032 111.194 67.318C110.564 66.1651 109.002 64.6468 107.723 64.987C106.444 65.3272 106.356 66.8518 107.282 67.9669Z" fill="#B97964"/>
<path d="M115.498 63.6825C115.555 64.0542 115.8 64.3125 116.046 64.3125C116.292 64.3125 116.443 63.9597 116.38 63.588C116.317 63.2163 116.084 62.958 115.838 62.958C115.592 62.958 115.441 63.3045 115.498 63.6825Z" fill="#263238"/>
<path d="M119.699 63.179C119.756 63.5507 120.001 63.809 120.247 63.809C120.493 63.809 120.644 63.4499 120.587 63.0782C120.531 62.7065 120.285 62.4482 120.039 62.4482C119.794 62.4482 119.699 62.8073 119.699 63.179Z" fill="#263238"/>
<path d="M118.439 63.5244C119.064 64.6123 119.831 65.6123 120.72 66.498C120.487 66.7105 120.211 66.8693 119.911 66.9629C119.61 67.0565 119.293 67.0828 118.981 67.0398L118.439 63.5244Z" fill="#A24E3F"/>
<path d="M117.577 68.2255C117.141 68.2308 116.708 68.1481 116.304 67.9825C115.9 67.8169 115.534 67.5717 115.227 67.2616C115.207 67.2404 115.195 67.2122 115.195 67.1828C115.195 67.1535 115.207 67.1252 115.227 67.1041C115.248 67.0837 115.276 67.0723 115.306 67.0723C115.335 67.0723 115.363 67.0837 115.384 67.1041C115.724 67.4338 116.134 67.6826 116.584 67.8321C117.033 67.9815 117.51 68.0277 117.98 67.9672C117.995 67.9654 118.009 67.9667 118.023 67.9709C118.038 67.9751 118.051 67.9821 118.062 67.9916C118.073 68.0011 118.082 68.0127 118.089 68.0259C118.095 68.039 118.099 68.0533 118.1 68.068C118.103 68.0822 118.102 68.0968 118.099 68.1109C118.095 68.1249 118.089 68.1381 118.08 68.1494C118.071 68.1608 118.06 68.1701 118.047 68.1767C118.034 68.1833 118.02 68.187 118.005 68.1877C117.863 68.209 117.72 68.2216 117.577 68.2255Z" fill="#263238"/>
<path d="M113.98 62.4726C113.945 62.482 113.908 62.482 113.873 62.4726C113.822 62.4435 113.784 62.3956 113.767 62.3392C113.751 62.2828 113.757 62.2222 113.784 62.1702C113.95 61.8639 114.187 61.6021 114.476 61.4069C114.764 61.2117 115.095 61.0888 115.441 61.0488C115.494 61.0577 115.542 61.0851 115.577 61.126C115.611 61.167 115.63 61.2188 115.63 61.2725C115.63 61.3261 115.611 61.378 115.577 61.4189C115.542 61.4599 115.494 61.4872 115.441 61.4961C115.17 61.5272 114.91 61.6244 114.685 61.7793C114.46 61.9341 114.276 62.1419 114.15 62.3844C114.13 62.4106 114.104 62.4321 114.074 62.4474C114.045 62.4626 114.013 62.4712 113.98 62.4726Z" fill="#263238"/>
<path d="M121.32 61.4895C121.284 61.4886 121.248 61.4789 121.216 61.4614C121.185 61.4438 121.158 61.4189 121.137 61.3887C120.985 61.1498 120.78 60.9493 120.537 60.8028C120.294 60.6564 120.021 60.568 119.739 60.5445C119.68 60.5445 119.624 60.5213 119.583 60.4799C119.542 60.4386 119.518 60.3825 119.518 60.324C119.518 60.2655 119.542 60.2094 119.583 60.1681C119.624 60.1267 119.68 60.1035 119.739 60.1035C120.094 60.1238 120.44 60.2287 120.747 60.4095C121.054 60.5903 121.313 60.8418 121.503 61.143C121.52 61.1669 121.531 61.1939 121.538 61.2225C121.544 61.251 121.544 61.2805 121.539 61.3092C121.534 61.3379 121.523 61.3653 121.507 61.3898C121.491 61.4142 121.47 61.4353 121.446 61.4517C121.409 61.4765 121.365 61.4896 121.32 61.4895Z" fill="#263238"/>
<g opacity="0.9">
<path opacity="0.9" d="M187.071 134.4C187.607 133.058 188.522 131.901 189.704 131.071C190.887 130.241 192.286 129.773 193.73 129.726H249.271C252.597 129.726 254.847 132.422 254.311 135.755L236.74 240.656C236.431 242.315 235.565 243.819 234.285 244.919C233.006 246.02 231.39 246.652 229.703 246.71H90.4356C89.6773 246.74 88.9223 246.595 88.2288 246.287C87.5352 245.979 86.9215 245.516 86.4348 244.934C85.9481 244.351 85.6013 243.665 85.4212 242.928C85.241 242.191 85.2323 241.422 85.3956 240.681L100.333 151.379C100.649 149.725 101.517 148.228 102.796 147.132C104.074 146.037 105.687 145.408 107.37 145.35H171.516C178.081 145.324 184.526 140.795 187.071 134.4Z" fill="url(#paint13_linear_8754_8195)"/>
</g>
<path opacity="0.5" d="M187.071 134.4C187.607 133.058 188.522 131.901 189.704 131.071C190.887 130.241 192.286 129.773 193.73 129.726H249.271C252.597 129.726 254.847 132.422 254.311 135.755L236.74 240.656C236.431 242.315 235.565 243.819 234.285 244.919C233.006 246.02 231.39 246.652 229.703 246.71H90.4356C89.6773 246.74 88.9223 246.595 88.2288 246.287C87.5352 245.979 86.9215 245.516 86.4348 244.934C85.9481 244.351 85.6013 243.665 85.4212 242.928C85.241 242.191 85.2323 241.422 85.3956 240.681L100.333 151.379C100.649 149.725 101.517 148.228 102.796 147.132C104.074 146.037 105.687 145.408 107.37 145.35H171.516C178.081 145.324 184.526 140.795 187.071 134.4Z" fill="white"/>
<path opacity="0.9" d="M164.964 41.2607L122.938 187.295L219.076 214.958L261.096 68.924L164.964 41.2607Z" fill="url(#paint14_linear_8754_8195)"/>
<path opacity="0.7" d="M164.964 41.2607L122.938 187.295L219.076 214.958L261.096 68.924L164.964 41.2607Z" fill="white"/>
<g style="mix-blend-mode:multiply" opacity="0.9">
<path d="M163.1 47.7314L122.938 187.295L215.805 214.019L253.449 69.5735L163.1 47.7314Z" fill="url(#paint15_linear_8754_8195)"/>
</g>
<path opacity="0.6" d="M163.1 47.7314L122.938 187.295L215.805 214.019L253.449 69.5735L163.1 47.7314Z" fill="url(#paint16_linear_8754_8195)"/>
<g opacity="0.9">
<g style="mix-blend-mode:multiply" opacity="0.9">
<path d="M163.1 47.7314L122.938 187.295L215.805 214.019L253.449 69.5735L163.1 47.7314Z" fill="white"/>
</g>
<path opacity="0.6" d="M163.1 47.7314L122.938 187.295L215.805 214.019L253.449 69.5735L163.1 47.7314Z" fill="white"/>
</g>
<path d="M197.142 87.269C203.443 80.0637 202.71 69.1147 195.505 62.8136C188.299 56.5125 177.35 57.2455 171.049 64.4508C164.748 71.6561 165.481 82.6051 172.686 88.9062C179.892 95.2073 190.841 94.4743 197.142 87.269Z" fill="url(#paint17_linear_8754_8195)"/>
<path d="M180.293 89.0406C177.684 88.2867 175.357 86.7762 173.607 84.7C171.856 82.6238 170.76 80.0752 170.457 77.3763C170.155 74.6774 170.659 71.9493 171.907 69.5371C173.154 67.1248 175.089 65.1365 177.467 63.8237C179.844 62.5108 182.557 61.9323 185.264 62.1612C187.97 62.3901 190.547 63.4162 192.67 65.1098C194.793 66.8034 196.367 69.0884 197.191 71.676C198.016 74.2635 198.055 77.0375 197.303 79.6473C196.805 81.3818 195.969 83.001 194.844 84.4122C193.719 85.8233 192.326 86.9988 190.746 87.8713C189.166 88.7437 187.43 89.2961 185.636 89.4967C183.843 89.6974 182.027 89.5424 180.293 89.0406Z" fill="white"/>
<path d="M190.779 103.502L160.18 94.6992L158.201 101.577L188.8 110.38L190.779 103.502Z" fill="url(#paint18_linear_8754_8195)"/>
<path d="M160.402 157.427L143.534 152.575L135.842 179.311L152.71 184.164L160.402 157.427Z" fill="url(#paint19_linear_8754_8195)"/>
<path d="M220.087 174.601L203.22 169.749L195.528 196.485L212.395 201.338L220.087 174.601Z" fill="url(#paint20_linear_8754_8195)"/>
<path d="M190.241 166.017L173.373 161.165L165.681 187.901L182.549 192.754L190.241 166.017Z" fill="url(#paint21_linear_8754_8195)"/>
<path d="M215.505 110.61L194.805 104.655L192.826 111.533L213.527 117.488L215.505 110.61Z" fill="url(#paint22_linear_8754_8195)"/>
<path d="M231.628 131.431L155.881 109.639L155.066 112.473L230.813 134.264L231.628 131.431Z" fill="white"/>
<path d="M191.814 126.495L154.15 115.66L153.334 118.493L190.999 129.329L191.814 126.495Z" fill="white"/>
<path d="M223.45 135.597L198.257 128.349L197.442 131.183L222.635 138.43L223.45 135.597Z" fill="white"/>
<path d="M212.967 139.095L152.417 121.675L151.602 124.509L212.152 141.929L212.967 139.095Z" fill="white"/>
<path d="M219.522 148.349L149.994 128.07L149.168 130.9L218.696 151.179L219.522 148.349Z" fill="white"/>
<path d="M156.99 136.033L148.95 133.72L148.135 136.554L156.175 138.867L156.99 136.033Z" fill="white"/>
<path d="M198.97 148.112L163.443 137.891L162.628 140.725L198.155 150.945L198.97 148.112Z" fill="white"/>
<path d="M222.967 161.536L147.22 139.744L146.404 142.578L222.151 164.369L222.967 161.536Z" fill="white"/>
<path d="M153.776 46.3701L116.826 193.79L213.846 218.114L250.789 70.6944L153.776 46.3701Z" fill="url(#paint23_linear_8754_8195)"/>
<path opacity="0.8" d="M153.776 46.3701L116.826 193.79L213.846 218.114L250.789 70.6944L153.776 46.3701Z" fill="white"/>
<path d="M181.629 95.841C190.248 91.6781 193.86 81.3161 189.697 72.697C185.535 64.0779 175.173 60.4654 166.553 64.6283C157.934 68.7913 154.322 79.1532 158.485 87.7723C162.648 96.3915 173.01 100.004 181.629 95.841Z" fill="url(#paint24_linear_8754_8195)"/>
<path d="M187.588 82.7203C188.953 75.2592 184.012 68.1038 176.551 66.7385C169.089 65.3731 161.934 70.3148 160.569 77.776C159.203 85.2372 164.145 92.3925 171.606 93.7578C179.067 95.1232 186.223 90.1815 187.588 82.7203Z" fill="white"/>
<path d="M181.729 107.665L150.844 99.9248L149.105 106.867L179.99 114.607L181.729 107.665Z" fill="url(#paint25_linear_8754_8195)"/>
<path d="M153.23 162.611L136.204 158.344L129.441 185.33L146.466 189.597L153.23 162.611Z" fill="url(#paint26_linear_8754_8195)"/>
<path d="M213.468 177.71L196.442 173.443L189.679 200.429L206.704 204.696L213.468 177.71Z" fill="url(#paint27_linear_8754_8195)"/>
<path d="M183.35 170.16L166.326 165.893L159.562 192.879L176.587 197.146L183.35 170.16Z" fill="url(#paint28_linear_8754_8195)"/>
<path d="M206.678 113.916L185.785 108.679L184.045 115.621L204.938 120.858L206.678 113.916Z" fill="url(#paint29_linear_8754_8195)"/>
<path d="M223.515 134.164L147.061 115.002L146.344 117.862L222.799 137.024L223.515 134.164Z" fill="white"/>
<path d="M183.556 130.605L145.539 121.077L144.822 123.937L182.839 133.465L183.556 130.605Z" fill="white"/>
<path d="M215.486 138.606L190.058 132.233L189.341 135.093L214.769 141.466L215.486 138.606Z" fill="white"/>
<path d="M205.13 142.472L144.014 127.154L143.297 130.014L204.413 145.332L205.13 142.472Z" fill="white"/>
<path d="M212.748 150.843L142.496 133.236L141.779 136.096L212.031 153.703L212.748 150.843Z" fill="white"/>
<path d="M149.084 141.353L140.969 139.319L140.252 142.179L148.367 144.213L149.084 141.353Z" fill="white"/>
<path d="M191.457 151.965L155.597 142.978L154.881 145.837L190.74 154.825L191.457 151.965Z" fill="white"/>
<path d="M215.901 164.551L139.446 145.39L138.73 148.25L215.184 167.411L215.901 164.551Z" fill="white"/>
<path opacity="0.5" d="M149.977 156.299C150.096 153.936 152.163 152.267 154.973 152.267H210.52C213.846 152.267 217.053 154.591 217.683 157.464L234.359 241.481C234.989 244.354 232.797 246.685 229.47 246.685H90.1838C86.8511 246.685 83.6445 244.354 83.0145 241.481L69.2993 170.927C68.6693 168.054 70.8617 165.723 74.1944 165.723H138.315C144.899 165.723 149.712 161.817 149.977 156.299Z" fill="url(#paint30_linear_8754_8195)"/>
<defs>
<linearGradient id="paint0_linear_8754_8195" x1="774.577" y1="-49.3348" x2="35.1347" y2="338.918" gradientUnits="userSpaceOnUse">
<stop stop-color="#00478C"/>
<stop offset="1" stop-color="#00203F"/>
</linearGradient>
<linearGradient id="paint1_linear_8754_8195" x1="183.775" y1="70.4265" x2="111.352" y2="95.1528" gradientUnits="userSpaceOnUse">
<stop stop-color="#00478C"/>
<stop offset="1" stop-color="#00203F"/>
</linearGradient>
<linearGradient id="paint2_linear_8754_8195" x1="221.915" y1="57.6592" x2="79.3823" y2="102.31" gradientUnits="userSpaceOnUse">
<stop stop-color="#00478C"/>
<stop offset="1" stop-color="#00203F"/>
</linearGradient>
<linearGradient id="paint3_linear_8754_8195" x1="250.583" y1="61.9754" x2="57.5256" y2="90.4771" gradientUnits="userSpaceOnUse">
<stop stop-color="#00478C"/>
<stop offset="1" stop-color="#00203F"/>
</linearGradient>
<linearGradient id="paint4_linear_8754_8195" x1="156.413" y1="69.6876" x2="81.1881" y2="94.3375" gradientUnits="userSpaceOnUse">
<stop stop-color="#00478C"/>
<stop offset="1" stop-color="#00203F"/>
</linearGradient>
<linearGradient id="paint5_linear_8754_8195" x1="122.371" y1="238.749" x2="115.336" y2="245.003" gradientUnits="userSpaceOnUse">
<stop stop-color="#00478C"/>
<stop offset="1" stop-color="#00203F"/>
</linearGradient>
<linearGradient id="paint6_linear_8754_8195" x1="117.765" y1="237.194" x2="111.579" y2="238.824" gradientUnits="userSpaceOnUse">
<stop stop-color="#00478C"/>
<stop offset="1" stop-color="#00203F"/>
</linearGradient>
<linearGradient id="paint7_linear_8754_8195" x1="112.698" y1="236.163" x2="106.082" y2="244.168" gradientUnits="userSpaceOnUse">
<stop stop-color="#00478C"/>
<stop offset="1" stop-color="#00203F"/>
</linearGradient>
<linearGradient id="paint8_linear_8754_8195" x1="109.48" y1="234.694" x2="101.052" y2="240.283" gradientUnits="userSpaceOnUse">
<stop stop-color="#00478C"/>
<stop offset="1" stop-color="#00203F"/>
</linearGradient>
<linearGradient id="paint9_linear_8754_8195" x1="135.669" y1="218.841" x2="94.081" y2="236.482" gradientUnits="userSpaceOnUse">
<stop stop-color="#00478C"/>
<stop offset="1" stop-color="#00203F"/>
</linearGradient>
<linearGradient id="paint10_linear_8754_8195" x1="170.427" y1="61.7806" x2="84.2834" y2="67.338" gradientUnits="userSpaceOnUse">
<stop stop-color="#00478C"/>
<stop offset="1" stop-color="#00203F"/>
</linearGradient>
<linearGradient id="paint11_linear_8754_8195" x1="146.998" y1="228.736" x2="128.664" y2="254.414" gradientUnits="userSpaceOnUse">
<stop stop-color="#00478C"/>
<stop offset="1" stop-color="#00203F"/>
</linearGradient>
<linearGradient id="paint12_linear_8754_8195" x1="187.814" y1="75.0484" x2="133.281" y2="129.478" gradientUnits="userSpaceOnUse">
<stop stop-color="#00478C"/>
<stop offset="1" stop-color="#00203F"/>
</linearGradient>
<linearGradient id="paint13_linear_8754_8195" x1="780.629" y1="67.4958" x2="144.503" y2="476.967" gradientUnits="userSpaceOnUse">
<stop stop-color="#00478C"/>
<stop offset="1" stop-color="#00203F"/>
</linearGradient>
<linearGradient id="paint14_linear_8754_8195" x1="691.019" y1="-51.1347" x2="37.92" y2="180.187" gradientUnits="userSpaceOnUse">
<stop stop-color="#00478C"/>
<stop offset="1" stop-color="#00203F"/>
</linearGradient>
<linearGradient id="paint15_linear_8754_8195" x1="659.572" y1="-40.7228" x2="40.8084" y2="175.53" gradientUnits="userSpaceOnUse">
<stop stop-color="#00478C"/>
<stop offset="1" stop-color="#00203F"/>
</linearGradient>
<linearGradient id="paint16_linear_8754_8195" x1="659.572" y1="-40.7228" x2="40.8084" y2="175.53" gradientUnits="userSpaceOnUse">
<stop stop-color="#00478C"/>
<stop offset="1" stop-color="#00203F"/>
</linearGradient>
<linearGradient id="paint17_linear_8754_8195" x1="309.292" y1="40.0898" x2="155.394" y2="108.621" gradientUnits="userSpaceOnUse">
<stop stop-color="#00478C"/>
<stop offset="1" stop-color="#00203F"/>
</linearGradient>
<linearGradient id="paint18_linear_8754_8195" x1="292.155" y1="86.3581" x2="198.765" y2="172.757" gradientUnits="userSpaceOnUse">
<stop stop-color="#00478C"/>
<stop offset="1" stop-color="#00203F"/>
</linearGradient>
<linearGradient id="paint19_linear_8754_8195" x1="236.828" y1="135.772" x2="120.149" y2="176.167" gradientUnits="userSpaceOnUse">
<stop stop-color="#00478C"/>
<stop offset="1" stop-color="#00203F"/>
</linearGradient>
<linearGradient id="paint20_linear_8754_8195" x1="296.51" y1="152.946" x2="179.835" y2="193.338" gradientUnits="userSpaceOnUse">
<stop stop-color="#00478C"/>
<stop offset="1" stop-color="#00203F"/>
</linearGradient>
<linearGradient id="paint21_linear_8754_8195" x1="266.666" y1="144.362" x2="149.988" y2="184.757" gradientUnits="userSpaceOnUse">
<stop stop-color="#00478C"/>
<stop offset="1" stop-color="#00203F"/>
</linearGradient>
<linearGradient id="paint22_linear_8754_8195" x1="286.078" y1="97.829" x2="211.566" y2="156.466" gradientUnits="userSpaceOnUse">
<stop stop-color="#00478C"/>
<stop offset="1" stop-color="#00203F"/>
</linearGradient>
<linearGradient id="paint23_linear_8754_8195" x1="667.655" y1="-44.9863" x2="31.6748" y2="175.915" gradientUnits="userSpaceOnUse">
<stop stop-color="#00478C"/>
<stop offset="1" stop-color="#00203F"/>
</linearGradient>
<linearGradient id="paint24_linear_8754_8195" x1="299.313" y1="44.457" x2="145.383" y2="113.001" gradientUnits="userSpaceOnUse">
<stop stop-color="#00478C"/>
<stop offset="1" stop-color="#00203F"/>
</linearGradient>
<linearGradient id="paint25_linear_8754_8195" x1="283.249" y1="92.1148" x2="195.546" y2="178.893" gradientUnits="userSpaceOnUse">
<stop stop-color="#00478C"/>
<stop offset="1" stop-color="#00203F"/>
</linearGradient>
<linearGradient id="paint26_linear_8754_8195" x1="227.257" y1="141.719" x2="113.737" y2="180.197" gradientUnits="userSpaceOnUse">
<stop stop-color="#00478C"/>
<stop offset="1" stop-color="#00203F"/>
</linearGradient>
<linearGradient id="paint27_linear_8754_8195" x1="287.494" y1="156.819" x2="173.974" y2="195.296" gradientUnits="userSpaceOnUse">
<stop stop-color="#00478C"/>
<stop offset="1" stop-color="#00203F"/>
</linearGradient>
<linearGradient id="paint28_linear_8754_8195" x1="257.374" y1="149.268" x2="143.858" y2="187.743" gradientUnits="userSpaceOnUse">
<stop stop-color="#00478C"/>
<stop offset="1" stop-color="#00203F"/>
</linearGradient>
<linearGradient id="paint29_linear_8754_8195" x1="277.107" y1="102.2" x2="205.638" y2="161.343" gradientUnits="userSpaceOnUse">
<stop stop-color="#00478C"/>
<stop offset="1" stop-color="#00203F"/>
</linearGradient>
<linearGradient id="paint30_linear_8754_8195" x1="748.773" y1="102.042" x2="201.806" y2="528.393" gradientUnits="userSpaceOnUse">
<stop stop-color="#00478C"/>
<stop offset="1" stop-color="#00203F"/>
</linearGradient>
</defs>
</svg>
